<svg xmlns="http://www.w3.org/2000/svg" viewBox="0 0 64 64">
  <path d="M11 22 L7 5 L23 14 Q32 10.5 41 14 L57 5 L53 22 Q60 32 57.5 42 Q53 59 32 60 Q11 59 6.5 42 Q4 32 11 22 Z" fill="#7b5cff" stroke="#4a33b8" stroke-width="2" stroke-linejoin="round"/>
  <path d="M26 17 Q32 21 38 17" fill="none" stroke="#a894ff" stroke-width="2" stroke-linecap="round"/>
  <circle cx="21.5" cy="33" r="13" fill="#f1ecff"/>
  <circle cx="42.5" cy="33" r="13" fill="#f1ecff"/>
  <ellipse cx="13" cy="46" rx="3.6" ry="2.3" fill="#ff9bb3"/>
  <ellipse cx="51" cy="46" rx="3.6" ry="2.3" fill="#ff9bb3"/>
  <circle cx="21.5" cy="33" r="9" fill="#fff" stroke="#2b2350" stroke-width="1.6"/>
  <circle cx="42.5" cy="33" r="9" fill="#fff" stroke="#2b2350" stroke-width="1.6"/>
  <circle cx="22.5" cy="34" r="5" fill="#2b2350"/>
  <circle cx="41.5" cy="34" r="5" fill="#2b2350"/>
  <circle cx="24.4" cy="31.8" r="1.8" fill="#fff"/>
  <circle cx="43.4" cy="31.8" r="1.8" fill="#fff"/>
  <path d="M32 39.5 L27.8 44.2 Q32 49.5 36.2 44.2 Z" fill="#ffb347" stroke="#d98a1f" stroke-width="1.4" stroke-linejoin="round"/>
</svg>
